<svg xmlns="http://www.w3.org/2000/svg" viewBox="0 0 32 32">
  <rect width="32" height="32" fill="#0B2031"/>
  <rect x="10" y="10" width="12" height="12" rx="1" fill="#EAF1F4"/>
  <g stroke="#C8702A" stroke-width="1.5">
    <line x1="13" y1="10" x2="13" y2="5"/>
    <line x1="19" y1="10" x2="19" y2="5"/>
    <line x1="13" y1="22" x2="13" y2="27"/>
    <line x1="19" y1="22" x2="19" y2="27"/>
    <line x1="10" y1="13" x2="5" y2="13"/>
    <line x1="10" y1="19" x2="5" y2="19"/>
    <line x1="22" y1="13" x2="27" y2="13"/>
    <line x1="22" y1="19" x2="27" y2="19"/>
  </g>
  <circle cx="13" cy="5" r="1.3" fill="#C8702A"/>
  <circle cx="19" cy="5" r="1.3" fill="#C8702A"/>
  <circle cx="13" cy="27" r="1.3" fill="#C8702A"/>
  <circle cx="19" cy="27" r="1.3" fill="#C8702A"/>
  <circle cx="5" cy="13" r="1.3" fill="#C8702A"/>
  <circle cx="5" cy="19" r="1.3" fill="#C8702A"/>
  <circle cx="27" cy="13" r="1.3" fill="#C8702A"/>
  <circle cx="27" cy="19" r="1.3" fill="#C8702A"/>
</svg>
